<svg width="67" height="66" viewBox="0 0 67 66" fill="none" xmlns="http://www.w3.org/2000/svg">
<path d="M46.0015 29.9666H60.8236V33.5626H46.0015V29.9666ZM31.1496 44.1944C34.4261 42.6267 36.1424 40.2418 36.1424 36.5567C36.1424 29.2683 30.7187 27.5 24.4555 27.5H7.21875V64.0835H24.9384C31.5806 64.0835 37.814 60.8888 37.814 53.4592C37.814 48.8676 35.6446 45.4723 31.1496 44.1944ZM15.2576 33.7409H22.7987C25.7037 33.7409 28.3115 34.5507 28.3115 37.9238C28.3115 41.0294 26.2832 42.2776 23.4079 42.2776H15.2576V33.7409ZM23.8389 57.8724H15.2502V47.7978H24.0097C27.5463 47.7978 29.7826 49.2763 29.7826 53.0208C29.7826 56.7059 27.1153 57.8724 23.8389 57.8724ZM66.6188 51.2228C66.6188 43.3846 62.0347 36.8539 53.7432 36.8539C45.682 36.8539 40.1989 42.9239 40.1989 50.8811C40.1989 59.128 45.3923 64.7894 53.7432 64.7894C60.0658 64.7894 64.1595 61.9438 66.1284 55.8738H59.7166C59.0182 58.1398 56.1801 59.3286 53.9735 59.3286C49.7089 59.3286 47.48 56.8322 47.48 52.5899H66.5667C66.589 52.1515 66.6188 51.6909 66.6188 51.2228ZM47.48 47.9984C47.7103 44.5139 50.0358 42.337 53.5129 42.337C57.1682 42.337 58.9959 44.4842 59.3154 47.9984H47.48Z" fill="#2E2E2E"/>
</svg>
