<svg width="65" height="65" viewBox="0 0 65 65" fill="none" xmlns="http://www.w3.org/2000/svg">
<path d="M21.9024 12.6472C25.9931 10.8533 30.4723 10.1278 34.9201 10.5389C39.3679 10.95 43.6383 12.4841 47.3309 14.9974C44.2777 19.1378 40.4336 22.6316 36.0211 25.2765C32.3129 20.0691 27.4896 15.7545 21.9027 12.6472H21.9024ZM32.3928 27.1935C28.5657 21.9699 23.4933 17.7861 17.637 15.0225C12.5216 18.5123 8.7897 23.6831 7.08901 29.6374C10.0876 30.3703 13.1634 30.7403 16.2502 30.7396C21.8248 30.7449 27.3336 29.5348 32.3928 27.1938V27.1935ZM58.8549 35.2314C58.4458 28.48 55.4559 22.1445 50.5042 17.537C47.1718 22.0186 42.9982 25.8082 38.2167 28.6938C39.6088 31.1055 40.7605 33.6481 41.6551 36.2851C47.2572 34.7684 53.1098 34.4098 58.8552 35.2314H58.8549ZM42.775 40.1907C43.5273 43.3921 43.9065 46.6699 43.9049 49.9585C43.9024 53.8004 43.3828 57.6245 42.3601 61.3279C46.8478 59.5131 50.7519 56.5023 53.6475 52.6231C56.5432 48.7439 58.3195 44.1449 58.7833 39.3264C53.4455 38.4938 47.9924 38.7882 42.7753 40.1907H42.775ZM37.7883 37.5361C36.97 35.1355 35.9162 32.8217 34.6422 30.6286C28.9026 33.3828 22.6164 34.8091 16.2502 34.8016C12.8947 34.8026 9.55074 34.4073 6.28794 33.6239C5.75663 37.9647 6.31287 42.3694 7.90658 46.4418C9.50029 50.5142 12.0815 54.1265 15.4179 56.9536C20.3328 48.0304 28.2626 41.1473 37.7883 37.5361ZM18.7344 59.3599C24.3982 62.8254 31.1602 64.0285 37.6718 62.7292C39.1066 58.6241 39.8403 54.3068 39.8424 49.9582C39.8425 47.0997 39.5246 44.25 38.8946 41.4618C30.2522 44.828 23.1006 51.1771 18.7344 59.3599Z" fill="#2E2E2E"/>
</svg>
