<svg width="68" height="68" viewBox="0 0 68 68" fill="none" xmlns="http://www.w3.org/2000/svg">
<path d="M14.1183 28.3248C17.5421 28.3248 20.3176 25.5493 20.3176 22.1255C20.3176 18.7017 17.5421 15.9261 14.1183 15.9261C10.6945 15.9261 7.91895 18.7017 7.91895 22.1255C7.91895 25.5493 10.6945 28.3248 14.1183 28.3248Z" fill="#141414"/>
<path d="M26.1714 33.0225V67.4163H36.8502V50.4078C36.8502 45.9198 37.6945 41.5735 43.2592 41.5735C48.7474 41.5735 48.8154 46.7047 48.8154 50.6912V67.4192H59.4999V48.5577C59.4999 39.2927 57.5052 32.1725 46.6762 32.1725C41.477 32.1725 37.992 35.0257 36.5669 37.7258H36.4224V33.0225H26.1714ZM8.76904 33.0225H19.4649V67.4163H8.76904V33.0225Z" fill="#2E2E2E"/>
</svg>
