<svg width="148" height="29" viewBox="0 0 148 29" fill="none" xmlns="http://www.w3.org/2000/svg">
<path d="M20.8262 24.3125V14.8496H25.5137V29H14.4688C11.832 29 9.41992 28.3555 7.23242 27.0664C5.06445 25.7773 3.33594 24.0488 2.04688 21.8809C0.757812 19.6934 0.113281 17.2812 0.113281 14.6445C0.113281 12.0273 0.757812 9.63477 2.04688 7.4668C3.33594 5.29883 5.06445 3.57031 7.23242 2.28125C9.40039 0.972656 11.8027 0.318359 14.4395 0.318359C16.4512 0.318359 18.375 0.728516 20.2109 1.54883C22.0664 2.36914 23.6777 3.53125 25.0449 5.03516L21.5879 8.19922C19.5176 6.07031 17.1348 5.00586 14.4395 5.00586C11.7832 5.00586 9.50781 5.95313 7.61328 7.84766C5.73828 9.72266 4.80078 11.9883 4.80078 14.6445C4.80078 17.3203 5.73828 19.6055 7.61328 21.5C9.50781 23.375 11.793 24.3125 14.4688 24.3125H20.8262ZM40.543 6.00195C42.6719 6.00195 44.6055 6.51953 46.3438 7.55469C48.082 8.58984 49.4688 9.97656 50.5039 11.7148C51.5391 13.4531 52.0566 15.3867 52.0566 17.5156V29H40.5723C38.4629 29 36.5293 28.4824 34.7715 27.4473C33.0332 26.4121 31.6465 25.0254 30.6113 23.2871C29.5762 21.5293 29.0586 19.5957 29.0586 17.4863C29.0586 15.377 29.5762 13.4531 30.6113 11.7148C31.6465 9.97656 33.0332 8.58984 34.7715 7.55469C36.5098 6.51953 38.4336 6.00195 40.543 6.00195ZM47.3691 24.3125V17.5156C47.3691 15.6211 46.7051 14.0098 45.377 12.6816C44.0488 11.3535 42.4375 10.6895 40.543 10.6895C38.668 10.6895 37.0664 11.3535 35.7383 12.6816C34.4102 14.0098 33.7461 15.6113 33.7461 17.4863C33.7461 19.3613 34.4102 20.9727 35.7383 22.3203C37.0859 23.6484 38.6973 24.3125 40.5723 24.3125H47.3691ZM55.6016 29V0.435547H60.2891V29H55.6016ZM63.8047 29V0.435547H68.4922V29H63.8047ZM83.4922 6.00195C85.6211 6.00195 87.5547 6.51953 89.293 7.55469C91.0312 8.58984 92.418 9.97656 93.4531 11.7148C94.4883 13.4531 95.0059 15.3867 95.0059 17.5156V19.8594H77.1055C77.6133 21.168 78.4434 22.2422 79.5957 23.082C80.748 23.9023 82.0566 24.3125 83.5215 24.3125H90.7871V29H83.5215C81.4121 29 79.4785 28.4824 77.7207 27.4473C75.9824 26.4121 74.5957 25.0254 73.5605 23.2871C72.5254 21.5293 72.0078 19.5957 72.0078 17.4863C72.0078 15.377 72.5254 13.4531 73.5605 11.7148C74.5957 9.97656 75.9824 8.58984 77.7207 7.55469C79.459 6.51953 81.3828 6.00195 83.4922 6.00195ZM77.1055 15.1719H89.9082C89.4004 13.8438 88.5703 12.7695 87.418 11.9492C86.2852 11.1094 84.9766 10.6895 83.4922 10.6895C82.0273 10.6895 80.7188 11.1094 79.5664 11.9492C78.4336 12.7695 77.6133 13.8438 77.1055 15.1719ZM98.5508 17.5449C98.5508 15.4355 99.0684 13.5117 100.104 11.7734C101.139 10.0156 102.525 8.61914 104.264 7.58398C106.021 6.54883 107.955 6.03125 110.064 6.03125C110.436 6.03125 110.904 6.07031 111.471 6.14844C112.037 6.22656 112.594 6.37305 113.141 6.58789L111.5 10.9824C111.266 10.8848 111.002 10.8164 110.709 10.7773C110.436 10.7383 110.221 10.7188 110.064 10.7188C108.189 10.7188 106.578 11.3926 105.23 12.7402C103.902 14.0684 103.238 15.6699 103.238 17.5449V29H98.5508V17.5449ZM116.656 29V11.7148H121.344V29H116.656ZM121.344 2.57422V7.26172H116.656V4.91797L121.344 2.57422ZM136.344 6.00195C138.473 6.00195 140.406 6.51953 142.145 7.55469C143.883 8.58984 145.27 9.97656 146.305 11.7148C147.34 13.4531 147.857 15.3867 147.857 17.5156V29H136.373C134.264 29 132.33 28.4824 130.572 27.4473C128.834 26.4121 127.447 25.0254 126.412 23.2871C125.377 21.5293 124.859 19.5957 124.859 17.4863C124.859 15.377 125.377 13.4531 126.412 11.7148C127.447 9.97656 128.834 8.58984 130.572 7.55469C132.311 6.51953 134.234 6.00195 136.344 6.00195ZM143.17 24.3125V17.5156C143.17 15.6211 142.506 14.0098 141.178 12.6816C139.85 11.3535 138.238 10.6895 136.344 10.6895C134.469 10.6895 132.867 11.3535 131.539 12.6816C130.211 14.0098 129.547 15.6113 129.547 17.4863C129.547 19.3613 130.211 20.9727 131.539 22.3203C132.887 23.6484 134.498 24.3125 136.373 24.3125H143.17Z" fill="#141414" fill-opacity="0.9"/>
</svg>
