<svg width="55" height="55" viewBox="0 0 55 55" fill="none" xmlns="http://www.w3.org/2000/svg">
<path d="M34.3128 6.86498C29.8307 5.82349 25.1695 5.82349 20.6874 6.86498C18.0988 5.27731 16.1224 4.54765 14.6851 4.23965C14.0716 4.10119 13.4439 4.03596 12.8151 4.04531C12.529 4.05307 12.2442 4.08744 11.9644 4.14798L11.9278 4.15531L11.9131 4.16265H11.9021L12.4044 5.92631L11.9021 4.16631C11.6445 4.23911 11.406 4.36743 11.2033 4.54226C11.0006 4.7171 10.8386 4.9342 10.7288 5.17831C9.647 7.60091 9.44091 10.3242 10.1458 12.882C8.32026 15.0943 7.32545 17.8751 7.33343 20.7433C7.33343 26.4376 9.01277 30.2656 11.8764 32.726C13.8821 34.4493 16.3168 35.366 18.7588 35.8903C18.3554 37.0086 18.2528 38.193 18.3334 39.403V41.5956C16.8411 41.9073 15.8071 41.8083 15.0701 41.5663C14.1498 41.262 13.4421 40.6497 12.7638 39.7696C12.4092 39.2953 12.0787 38.8033 11.7738 38.2956L11.5648 37.9546C11.3009 37.5158 11.027 37.083 10.7434 36.6567C10.0468 35.6263 9.01277 34.3356 7.34077 33.8956L5.5661 33.43L4.63477 36.9793L6.40943 37.445C6.70277 37.5183 7.0841 37.7933 7.7111 38.7136C7.9421 39.0546 8.15843 39.4103 8.40777 39.821L8.6571 40.2243C9.00177 40.7816 9.39777 41.3976 9.8561 41.999C10.7838 43.209 12.0488 44.43 13.9261 45.0496C15.2094 45.475 16.6688 45.5776 18.3334 45.321V52.1666C18.3334 52.6529 18.5266 53.1192 18.8704 53.463C19.2142 53.8068 19.6805 54 20.1668 54H34.8334C35.3197 54 35.786 53.8068 36.1298 53.463C36.4736 53.1192 36.6668 52.6529 36.6668 52.1666V39.1023C36.6668 37.9473 36.6154 36.8876 36.2891 35.9013C38.7201 35.388 41.1364 34.4713 43.1311 32.748C45.9911 30.2693 47.6668 26.4046 47.6668 20.6773V20.6736C47.6575 17.8289 46.6624 15.0753 44.8508 12.882C45.5548 10.3253 45.3487 7.6035 44.2678 5.18198C44.1588 4.93758 43.9976 4.72 43.7955 4.54454C43.5934 4.36908 43.3554 4.23998 43.0981 4.16631L42.5958 5.92631C43.0981 4.16631 43.0944 4.16631 43.0908 4.16631L43.0834 4.16265L43.0688 4.15531L43.0358 4.14798C42.9452 4.12443 42.8534 4.10607 42.7608 4.09298C42.5689 4.06496 42.3754 4.04904 42.1814 4.04531C41.5526 4.03603 40.9249 4.10126 40.3114 4.23965C38.8778 4.54765 36.9014 5.27731 34.3128 6.86498Z" fill="#2E2E2E"/>
</svg>
